# xmcd
#
# Track frame offsets:
#  150
#  24728
#  54202
#  78640
#  95189
#  118455
#  140507
#  158537
#  183641
#  206686
#  239876
#  261380
#  292453
#  318657
#
# Disc length: 4437 seconds
#
# Revision: 0
# Processed by: cddbd v1.5.2PL0 Copyright (c) Steve Scherf et al.
# Submitted via: AltoMP3_Maker 3.0
#
DISCID=e711530e
DTITLE=Various Artist - Disco_r.dance volume 1 [CD 2)
DYEAR=1900
DGENRE=
TTITLE0=Isnaj Duj - Dulc Improv
TTITLE1=Blaubac - Weutze
TTITLE2=Point B - The Contortionist
TTITLE3=dDamage - Sign my name part 2 (feat. Tes)
TTITLE4=Microtanks - Trond
TTITLE5=Damien Singleton and Inga-Lill Aker - As Is
TTITLE6=DJ Spazmo vs. Gusset - 99 high hos don't 
TTITLE7=The Doubtful Guest - Widouted
TTITLE8=Gagarin - Onomo
TTITLE9=Satanicpornocultshop - See Mee M Paz
TTITLE10=Kwerk - Kiss My Rave
TTITLE11=U-Born - E-skator
TTITLE12=Bovaflux - Nunnyiong
TTITLE13=Tunng - Jenny Again (Stendeck's non-conte
EXTD=
EXTT0=
EXTT1=
EXTT2=
EXTT3=
EXTT4=
EXTT5=
EXTT6=
EXTT7=
EXTT8=
EXTT9=
EXTT10=
EXTT11=
EXTT12=
EXTT13=
PLAYORDER=
